<?xml version="1.0" encoding="UTF-8" standalone="no"?>
<!DOCTYPE svg PUBLIC "-//W3C//DTD SVG 1.1//EN" "http://www.w3.org/Graphics/SVG/1.1/DTD/svg11.dtd">
<svg version="1.1" xmlns="http://www.w3.org/2000/svg" xmlns:xlink="http://www.w3.org/1999/xlink" preserveAspectRatio="xMidYMid meet" viewBox="0 0 640 640" width="640" height="640"><defs><path d="M503.57 58C459.71 58 424.16 93.55 424.16 137.41C424.16 229.16 424.16 430.11 424.16 523.13C424.16 563.47 456.86 596.17 497.2 596.17C512.76 596.17 482.15 596.17 496.64 596.17C539.92 596.17 575 561.09 575 517.81C575 425.85 575 223.61 575 130.47C575 90.45 542.55 58 502.52 58C486.85 58 517.86 58 503.57 58Z" id="a352yQ2gw1"></path><path d="M121.36 58C100.17 58 83 75.17 83 96.36C83 136.73 83 97.17 83 106.96C83 212.59 168.63 298.22 274.26 298.22C292.8 298.22 282.36 298.22 332.2 298.22C351.41 298.22 366.98 282.65 366.98 263.43C366.98 222.35 366.98 241 366.98 226.7C366.98 133.53 291.45 58 198.29 58C175.23 58 170.48 58 121.36 58Z" id="bnRBiVg5"></path><path d="M121.36 596.17C100.17 596.17 83 579 83 557.81C83 517.44 83 557 83 547.21C83 441.58 168.63 355.95 274.26 355.95C292.8 355.95 282.36 355.95 332.2 355.95C351.41 355.95 366.98 371.52 366.98 390.74C366.98 431.82 366.98 413.17 366.98 427.47C366.98 520.64 291.45 596.17 198.29 596.17C175.23 596.17 170.48 596.17 121.36 596.17Z" id="aoNXdqABl"></path></defs><g><g><g><use xlink:href="#a352yQ2gw1" opacity="1" fill="#63c549" fill-opacity="1"></use></g><g><use xlink:href="#bnRBiVg5" opacity="1" fill="#ff8d8d" fill-opacity="1"></use></g><g><use xlink:href="#aoNXdqABl" opacity="1" fill="#e79eff" fill-opacity="1"></use></g></g></g></svg>