<?xml version="1.0" encoding="UTF-8" standalone="no"?>
<!DOCTYPE svg PUBLIC "-//W3C//DTD SVG 1.1//EN" "http://www.w3.org/Graphics/SVG/1.1/DTD/svg11.dtd">
<svg version="1.1" xmlns="http://www.w3.org/2000/svg" xmlns:xlink="http://www.w3.org/1999/xlink" preserveAspectRatio="xMidYMid meet" viewBox="0 0 640 640" width="640" height="640"><defs><path d="M496.44 304.43L496.64 304.45L496.84 304.48L497.04 304.53L497.24 304.58L497.44 304.65L497.64 304.72L497.84 304.81L498.03 304.9L498.22 305.01L556.67 340.09L556.85 340.21L557.02 340.33L557.19 340.47L557.35 340.6L557.5 340.75L557.64 340.9L557.78 341.06L557.9 341.22L558.02 341.39L558.13 341.56L558.23 341.74L558.32 341.92L558.4 342.11L558.47 342.3L558.53 342.49L558.59 342.68L558.63 342.88L558.67 343.08L558.69 343.28L558.71 343.48L558.71 343.69L558.71 343.89L558.69 344.09L558.67 344.3L558.64 344.5L558.59 344.7L558.54 344.9L558.47 345.1L558.4 345.3L558.31 345.49L558.22 345.69L558.11 345.87L557.99 346.06L557.87 346.23L557.74 346.4L557.6 346.56L557.46 346.71L557.3 346.85L557.15 346.99L556.98 347.11L556.81 347.23L556.64 347.34L556.46 347.43L556.28 347.52L556.1 347.61L555.91 347.68L555.71 347.74L555.52 347.79L555.32 347.84L555.12 347.87L554.92 347.9L554.72 347.91L554.52 347.92L554.31 347.92L554.11 347.9L553.91 347.88L553.7 347.85L553.5 347.8L553.3 347.75L553.1 347.68L552.9 347.61L552.71 347.52L552.52 347.43L552.33 347.32L495.62 313.28L444.14 354.54L443.96 354.68L443.79 354.8L443.61 354.91L443.42 355.01L443.23 355.1L443.04 355.18L442.85 355.25L442.65 355.31L442.45 355.36L442.25 355.4L442.05 355.43L441.85 355.46L441.65 355.47L441.44 355.47L441.24 355.46L441.04 355.44L440.84 355.42L440.64 355.38L440.44 355.33L440.25 355.28L440.06 355.21L439.87 355.14L439.68 355.06L439.5 354.96L439.32 354.86L439.14 354.75L438.98 354.63L438.81 354.5L438.65 354.36L438.5 354.21L438.35 354.06L438.21 353.89L438.08 353.72L437.96 353.54L437.85 353.36L437.75 353.17L437.66 352.99L437.58 352.79L437.51 352.6L437.45 352.4L437.39 352.21L437.35 352.01L437.32 351.8L437.3 351.6L437.29 351.4L437.29 351.2L437.3 351L437.31 350.79L437.34 350.59L437.38 350.39L437.42 350.2L437.48 350L437.54 349.81L437.62 349.62L437.7 349.43L437.79 349.25L437.9 349.07L438.01 348.9L438.13 348.73L438.26 348.57L438.4 348.41L438.54 348.25L438.7 348.11L438.87 347.97L492.06 305.33L492.23 305.2L492.41 305.08L492.59 304.97L492.78 304.87L492.97 304.78L493.16 304.7L493.35 304.63L493.55 304.57L493.75 304.52L493.95 304.47L494.15 304.44L494.35 304.42L494.55 304.41L494.75 304.41L494.96 304.42L495.16 304.43L495.36 304.46L495.38 304.46L495.42 304.46L495.62 304.43L495.83 304.41L496.03 304.41L496.23 304.41L496.44 304.43Z" id="e12aPqmbFK"></path><path d="M496.44 234.95L496.64 234.97L496.84 235.01L497.04 235.05L497.24 235.1L497.44 235.17L497.64 235.24L497.84 235.33L498.03 235.43L498.22 235.53L556.67 270.62L556.85 270.73L557.02 270.86L557.19 270.99L557.35 271.13L557.5 271.27L557.64 271.42L557.78 271.58L557.9 271.74L558.02 271.91L558.13 272.09L558.23 272.26L558.32 272.45L558.4 272.63L558.47 272.82L558.53 273.01L558.59 273.21L558.63 273.4L558.67 273.6L558.69 273.8L558.71 274.01L558.71 274.21L558.71 274.41L558.69 274.62L558.67 274.82L558.64 275.02L558.59 275.23L558.54 275.43L558.47 275.63L558.4 275.82L558.31 276.02L558.22 276.21L558.11 276.4L557.99 276.58L557.87 276.76L557.74 276.92L557.6 277.08L557.46 277.23L557.3 277.37L557.15 277.51L556.98 277.63L556.81 277.75L556.64 277.86L556.46 277.96L556.28 278.05L556.1 278.13L555.91 278.2L555.71 278.26L555.52 278.32L555.32 278.36L555.12 278.4L554.92 278.42L554.72 278.44L554.52 278.44L554.31 278.44L554.11 278.43L553.91 278.4L553.7 278.37L553.5 278.32L553.3 278.27L553.1 278.21L552.9 278.13L552.71 278.04L552.52 277.95L552.33 277.84L495.62 243.8L444.14 285.07L443.96 285.2L443.79 285.32L443.61 285.43L443.42 285.53L443.23 285.62L443.04 285.7L442.85 285.77L442.65 285.83L442.45 285.88L442.25 285.93L442.05 285.96L441.85 285.98L441.65 285.99L441.44 285.99L441.24 285.98L441.04 285.97L440.84 285.94L440.64 285.9L440.44 285.86L440.25 285.8L440.06 285.74L439.87 285.66L439.68 285.58L439.5 285.49L439.32 285.38L439.14 285.27L438.98 285.15L438.81 285.02L438.65 284.88L438.5 284.74L438.35 284.58L438.21 284.41L438.08 284.24L437.96 284.06L437.85 283.88L437.75 283.7L437.66 283.51L437.58 283.32L437.51 283.12L437.45 282.93L437.39 282.73L437.35 282.53L437.32 282.33L437.3 282.13L437.29 281.92L437.29 281.72L437.3 281.52L437.31 281.32L437.34 281.12L437.38 280.92L437.42 280.72L437.48 280.53L437.54 280.33L437.62 280.14L437.7 279.96L437.79 279.77L437.9 279.6L438.01 279.42L438.13 279.25L438.26 279.09L438.4 278.93L438.54 278.78L438.7 278.63L438.87 278.49L492.06 235.86L492.23 235.73L492.41 235.6L492.59 235.49L492.78 235.39L492.97 235.3L493.16 235.22L493.35 235.15L493.55 235.09L493.75 235.04L493.95 235L494.15 234.97L494.35 234.94L494.55 234.93L494.75 234.93L494.96 234.94L495.16 234.96L495.36 234.98L495.38 234.99L495.42 234.98L495.62 234.95L495.83 234.94L496.03 234.93L496.23 234.93L496.44 234.95Z" id="c1jjGHQr7l"></path><path d="M496.44 362.64L496.64 362.66L496.84 362.7L497.04 362.74L497.24 362.8L497.44 362.86L497.64 362.93L497.84 363.02L498.03 363.12L498.22 363.22L556.67 398.31L556.85 398.42L557.02 398.55L557.19 398.68L557.35 398.82L557.5 398.96L557.64 399.11L557.78 399.27L557.9 399.44L558.02 399.6L558.13 399.78L558.23 399.95L558.32 400.14L558.4 400.32L558.47 400.51L558.53 400.7L558.59 400.9L558.63 401.1L558.67 401.3L558.69 401.5L558.71 401.7L558.71 401.9L558.71 402.1L558.69 402.31L558.67 402.51L558.64 402.71L558.59 402.92L558.54 403.12L558.47 403.32L558.4 403.51L558.31 403.71L558.22 403.9L558.11 404.09L557.99 404.27L557.87 404.45L557.74 404.61L557.6 404.77L557.46 404.92L557.3 405.07L557.15 405.2L556.98 405.32L556.81 405.44L556.64 405.55L556.46 405.65L556.28 405.74L556.1 405.82L555.91 405.89L555.71 405.95L555.52 406.01L555.32 406.05L555.12 406.09L554.92 406.11L554.72 406.13L554.52 406.13L554.31 406.13L554.11 406.12L553.91 406.09L553.7 406.06L553.5 406.02L553.3 405.96L553.1 405.9L552.9 405.82L552.71 405.74L552.52 405.64L552.33 405.53L495.62 371.5L444.14 412.76L443.96 412.89L443.79 413.01L443.61 413.12L443.42 413.22L443.23 413.31L443.04 413.39L442.85 413.46L442.65 413.53L442.45 413.58L442.25 413.62L442.05 413.65L441.85 413.67L441.65 413.68L441.44 413.68L441.24 413.68L441.04 413.66L440.84 413.63L440.64 413.59L440.44 413.55L440.25 413.49L440.06 413.43L439.87 413.35L439.68 413.27L439.5 413.18L439.32 413.08L439.14 412.96L438.98 412.84L438.81 412.71L438.65 412.58L438.5 412.43L438.35 412.27L438.21 412.1L438.08 411.93L437.96 411.76L437.85 411.57L437.75 411.39L437.66 411.2L437.58 411.01L437.51 410.81L437.45 410.62L437.39 410.42L437.35 410.22L437.32 410.02L437.3 409.82L437.29 409.61L437.29 409.41L437.3 409.21L437.31 409.01L437.34 408.81L437.38 408.61L437.42 408.41L437.48 408.22L437.54 408.02L437.62 407.83L437.7 407.65L437.79 407.47L437.9 407.29L438.01 407.11L438.13 406.94L438.26 406.78L438.4 406.62L438.54 406.47L438.7 406.32L438.87 406.18L492.06 363.55L492.23 363.42L492.41 363.3L492.59 363.18L492.78 363.08L492.97 362.99L493.16 362.91L493.35 362.84L493.55 362.78L493.75 362.73L493.95 362.69L494.15 362.66L494.35 362.64L494.55 362.62L494.75 362.62L494.96 362.63L495.16 362.65L495.36 362.67L495.38 362.68L495.42 362.67L495.62 362.64L495.83 362.63L496.03 362.62L496.23 362.63L496.44 362.64Z" id="dcY8pP0Eu"></path><path d="M140.44 234.95L140.64 234.97L140.84 235.01L141.04 235.05L141.24 235.1L141.44 235.17L141.64 235.24L141.84 235.33L142.03 235.43L142.22 235.53L200.67 270.62L200.85 270.73L201.02 270.86L201.19 270.99L201.35 271.13L201.5 271.27L201.64 271.42L201.78 271.58L201.9 271.74L202.02 271.91L202.13 272.09L202.23 272.26L202.32 272.45L202.4 272.63L202.47 272.82L202.53 273.01L202.59 273.21L202.63 273.4L202.67 273.6L202.69 273.8L202.71 274.01L202.71 274.21L202.71 274.41L202.69 274.62L202.67 274.82L202.64 275.02L202.59 275.23L202.54 275.43L202.47 275.63L202.4 275.82L202.31 276.02L202.22 276.21L202.11 276.4L201.99 276.58L201.87 276.76L201.74 276.92L201.6 277.08L201.46 277.23L201.3 277.37L201.15 277.51L200.98 277.63L200.81 277.75L200.64 277.86L200.46 277.96L200.28 278.05L200.1 278.13L199.91 278.2L199.71 278.26L199.52 278.32L199.32 278.36L199.12 278.4L198.92 278.42L198.72 278.44L198.52 278.44L198.31 278.44L198.11 278.43L197.91 278.4L197.7 278.37L197.5 278.32L197.3 278.27L197.1 278.21L196.9 278.13L196.71 278.04L196.52 277.95L196.33 277.84L139.62 243.8L88.14 285.07L87.96 285.2L87.79 285.32L87.61 285.43L87.42 285.53L87.23 285.62L87.04 285.7L86.85 285.77L86.65 285.83L86.45 285.88L86.25 285.93L86.05 285.96L85.85 285.98L85.65 285.99L85.44 285.99L85.24 285.98L85.04 285.97L84.84 285.94L84.64 285.9L84.44 285.86L84.25 285.8L84.06 285.74L83.87 285.66L83.68 285.58L83.5 285.49L83.32 285.38L83.14 285.27L82.98 285.15L82.81 285.02L82.65 284.88L82.5 284.74L82.35 284.58L82.21 284.41L82.08 284.24L81.96 284.06L81.85 283.88L81.75 283.7L81.66 283.51L81.58 283.32L81.51 283.12L81.45 282.93L81.39 282.73L81.35 282.53L81.32 282.33L81.3 282.13L81.29 281.92L81.29 281.72L81.3 281.52L81.31 281.32L81.34 281.12L81.38 280.92L81.42 280.72L81.48 280.53L81.54 280.33L81.62 280.14L81.7 279.96L81.79 279.77L81.9 279.6L82.01 279.42L82.13 279.25L82.26 279.09L82.4 278.93L82.54 278.78L82.7 278.63L82.87 278.49L136.06 235.86L136.23 235.73L136.41 235.6L136.59 235.49L136.78 235.39L136.97 235.3L137.16 235.22L137.35 235.15L137.55 235.09L137.75 235.04L137.95 235L138.15 234.97L138.35 234.94L138.55 234.93L138.75 234.93L138.96 234.94L139.16 234.96L139.36 234.98L139.38 234.99L139.42 234.98L139.62 234.95L139.83 234.94L140.03 234.93L140.23 234.93L140.44 234.95Z" id="fzRWSeoYx"></path><path d="M140.44 362.64L140.64 362.66L140.84 362.7L141.04 362.74L141.24 362.8L141.44 362.86L141.64 362.93L141.84 363.02L142.03 363.12L142.22 363.22L200.67 398.31L200.85 398.42L201.02 398.55L201.19 398.68L201.35 398.82L201.5 398.96L201.64 399.11L201.78 399.27L201.9 399.44L202.02 399.6L202.13 399.78L202.23 399.95L202.32 400.14L202.4 400.32L202.47 400.51L202.53 400.7L202.59 400.9L202.63 401.1L202.67 401.3L202.69 401.5L202.71 401.7L202.71 401.9L202.71 402.1L202.69 402.31L202.67 402.51L202.64 402.71L202.59 402.92L202.54 403.12L202.47 403.32L202.4 403.51L202.31 403.71L202.22 403.9L202.11 404.09L201.99 404.27L201.87 404.45L201.74 404.61L201.6 404.77L201.46 404.92L201.3 405.07L201.15 405.2L200.98 405.32L200.81 405.44L200.64 405.55L200.46 405.65L200.28 405.74L200.1 405.82L199.91 405.89L199.71 405.95L199.52 406.01L199.32 406.05L199.12 406.09L198.92 406.11L198.72 406.13L198.52 406.13L198.31 406.13L198.11 406.12L197.91 406.09L197.7 406.06L197.5 406.02L197.3 405.96L197.1 405.9L196.9 405.82L196.71 405.74L196.52 405.64L196.33 405.53L139.62 371.5L88.14 412.76L87.96 412.89L87.79 413.01L87.61 413.12L87.42 413.22L87.23 413.31L87.04 413.39L86.85 413.46L86.65 413.53L86.45 413.58L86.25 413.62L86.05 413.65L85.85 413.67L85.65 413.68L85.44 413.68L85.24 413.68L85.04 413.66L84.84 413.63L84.64 413.59L84.44 413.55L84.25 413.49L84.06 413.43L83.87 413.35L83.68 413.27L83.5 413.18L83.32 413.08L83.14 412.96L82.98 412.84L82.81 412.71L82.65 412.58L82.5 412.43L82.35 412.27L82.21 412.1L82.08 411.93L81.96 411.76L81.85 411.57L81.75 411.39L81.66 411.2L81.58 411.01L81.51 410.81L81.45 410.62L81.39 410.42L81.35 410.22L81.32 410.02L81.3 409.82L81.29 409.61L81.29 409.41L81.3 409.21L81.31 409.01L81.34 408.81L81.38 408.61L81.42 408.41L81.48 408.22L81.54 408.02L81.62 407.83L81.7 407.65L81.79 407.47L81.9 407.29L82.01 407.11L82.13 406.94L82.26 406.78L82.4 406.62L82.54 406.47L82.7 406.32L82.87 406.18L136.06 363.55L136.23 363.42L136.41 363.3L136.59 363.18L136.78 363.08L136.97 362.99L137.16 362.91L137.35 362.84L137.55 362.78L137.75 362.73L137.95 362.69L138.15 362.66L138.35 362.64L138.55 362.62L138.75 362.62L138.96 362.63L139.16 362.65L139.36 362.67L139.38 362.68L139.42 362.67L139.62 362.64L139.83 362.63L140.03 362.62L140.23 362.63L140.44 362.64Z" id="ba09npbIW"></path><path d="M140.44 302.64L140.64 302.66L140.84 302.7L141.04 302.74L141.24 302.8L141.44 302.86L141.64 302.93L141.84 303.02L142.03 303.12L142.22 303.22L200.67 338.31L200.85 338.42L201.02 338.55L201.19 338.68L201.35 338.82L201.5 338.96L201.64 339.11L201.78 339.27L201.9 339.44L202.02 339.6L202.13 339.78L202.23 339.95L202.32 340.14L202.4 340.32L202.47 340.51L202.53 340.7L202.59 340.9L202.63 341.1L202.67 341.3L202.69 341.5L202.71 341.7L202.71 341.9L202.71 342.1L202.69 342.31L202.67 342.51L202.64 342.71L202.59 342.92L202.54 343.12L202.47 343.32L202.4 343.51L202.31 343.71L202.22 343.9L202.11 344.09L201.99 344.27L201.87 344.45L201.74 344.61L201.6 344.77L201.46 344.92L201.3 345.07L201.15 345.2L200.98 345.32L200.81 345.44L200.64 345.55L200.46 345.65L200.28 345.74L200.1 345.82L199.91 345.89L199.71 345.95L199.52 346.01L199.32 346.05L199.12 346.09L198.92 346.11L198.72 346.13L198.52 346.13L198.31 346.13L198.11 346.12L197.91 346.09L197.7 346.06L197.5 346.02L197.3 345.96L197.1 345.9L196.9 345.82L196.71 345.74L196.52 345.64L196.33 345.53L139.62 311.5L88.14 352.76L87.96 352.89L87.79 353.01L87.61 353.12L87.42 353.22L87.23 353.31L87.04 353.39L86.85 353.46L86.65 353.53L86.45 353.58L86.25 353.62L86.05 353.65L85.85 353.67L85.65 353.68L85.44 353.68L85.24 353.68L85.04 353.66L84.84 353.63L84.64 353.59L84.44 353.55L84.25 353.49L84.06 353.43L83.87 353.35L83.68 353.27L83.5 353.18L83.32 353.08L83.14 352.96L82.98 352.84L82.81 352.71L82.65 352.58L82.5 352.43L82.35 352.27L82.21 352.1L82.08 351.93L81.96 351.76L81.85 351.57L81.75 351.39L81.66 351.2L81.58 351.01L81.51 350.81L81.45 350.62L81.39 350.42L81.35 350.22L81.32 350.02L81.3 349.82L81.29 349.61L81.29 349.41L81.3 349.21L81.31 349.01L81.34 348.81L81.38 348.61L81.42 348.41L81.48 348.22L81.54 348.02L81.62 347.83L81.7 347.65L81.79 347.47L81.9 347.29L82.01 347.11L82.13 346.94L82.26 346.78L82.4 346.62L82.54 346.47L82.7 346.32L82.87 346.18L136.06 303.55L136.23 303.42L136.41 303.3L136.59 303.18L136.78 303.08L136.97 302.99L137.16 302.91L137.35 302.84L137.55 302.78L137.75 302.73L137.95 302.69L138.15 302.66L138.35 302.64L138.55 302.62L138.75 302.62L138.96 302.63L139.16 302.65L139.36 302.67L139.38 302.68L139.42 302.67L139.62 302.64L139.83 302.63L140.03 302.62L140.23 302.63L140.44 302.64Z" id="g2OonOoJc"></path><path d="M460.55 338.44C460.55 407.38 417.52 465.74 358.41 484.98C350.76 487.47 324.11 461.99 315.98 452.02C309.85 444.5 322.33 452.02 315.98 452.02C309.38 452.02 322.35 443.87 315.98 452.02C308.5 461.6 281.72 487.57 274.65 485.33C214.97 466.46 171.42 407.8 171.42 338.44C171.42 253.85 236.19 185.18 315.98 185.18C395.77 185.18 460.55 253.85 460.55 338.44Z" id="a3jyMwodym"></path><path d="M441.51 338.44C441.51 346.54 434.45 353.11 425.75 353.11C417.05 353.11 409.99 346.54 409.99 338.44C409.99 330.34 417.05 323.76 425.75 323.76C434.45 323.76 441.51 330.34 441.51 338.44Z" id="c6rZ0cmwBg"></path><path d="M313.67 185.18L318.29 185.18L318.29 452.02L313.67 452.02L313.67 185.18Z" id="hLVMtkbjt"></path><path d="M246.42 289.73C246.42 297.83 239.36 304.41 230.66 304.41C221.96 304.41 214.9 297.83 214.9 289.73C214.9 281.64 221.96 275.06 230.66 275.06C239.36 275.06 246.42 281.64 246.42 289.73Z" id="b44O7tuwz0"></path><path d="M295.24 323.76C295.24 331.86 288.18 338.44 279.48 338.44C270.78 338.44 263.72 331.86 263.72 323.76C263.72 315.66 270.78 309.09 279.48 309.09C288.18 309.09 295.24 315.66 295.24 323.76Z" id="h4DqWOHSX"></path><path d="M403.17 404.61C403.17 412.71 396.11 419.29 387.41 419.29C378.72 419.29 371.65 412.71 371.65 404.61C371.65 396.51 378.72 389.94 387.41 389.94C396.11 389.94 403.17 396.51 403.17 404.61Z" id="b1vBA4mIwy"></path><path d="M418.94 285.99C418.94 294.09 411.87 300.67 403.17 300.67C394.48 300.67 387.41 294.09 387.41 285.99C387.41 277.89 394.48 271.32 403.17 271.32C411.87 271.32 418.94 277.89 418.94 285.99Z" id="b7BK5AJJZ"></path><path d="M230.66 353.11C230.66 361.21 223.59 367.78 214.9 367.78C206.2 367.78 199.13 361.21 199.13 353.11C199.13 345.01 206.2 338.44 214.9 338.44C223.59 338.44 230.66 345.01 230.66 353.11Z" id="bdAPlBdIF"></path><path d="M277.94 413.68C277.94 421.78 270.88 428.36 262.18 428.36C253.48 428.36 246.42 421.78 246.42 413.68C246.42 405.58 253.48 399.01 262.18 399.01C270.88 399.01 277.94 405.58 277.94 413.68Z" id="awnB9zKlA"></path><path d="M376.29 338.44C376.29 346.54 369.23 353.11 360.53 353.11C351.83 353.11 344.77 346.54 344.77 338.44C344.77 330.34 351.83 323.76 360.53 323.76C369.23 323.76 376.29 330.34 376.29 338.44Z" id="aDxjqW8o"></path><path d="M401.31 209.52C401.31 239.52 363.08 263.87 315.98 263.87C268.89 263.87 230.66 239.52 230.66 209.52C230.66 179.53 268.89 155.18 315.98 155.18C363.08 155.18 401.31 179.53 401.31 209.52Z" id="d5CSNmz8A"></path><path d="M370.63 137.7L370.83 137.72L371.03 137.75L371.23 137.79L371.43 137.84L371.62 137.9L371.81 137.97L372 138.05L372.18 138.13L372.36 138.23L372.54 138.33L372.71 138.45L372.88 138.57L373.04 138.7L373.19 138.84L373.34 138.99L373.49 139.15L373.62 139.31L373.75 139.49L373.87 139.67L373.98 139.85L374.08 140.04L374.17 140.23L374.25 140.43L374.31 140.62L374.37 140.82L374.42 141.02L374.46 141.22L374.48 141.43L374.5 141.63L374.51 141.83L374.51 142.04L374.5 142.24L374.48 142.44L374.45 142.64L374.41 142.84L374.36 143.03L374.3 143.23L374.23 143.42L374.15 143.61L374.07 143.79L373.97 143.97L373.87 144.15L373.75 144.32L373.63 144.48L373.5 144.64L373.36 144.8L373.21 144.95L373.05 145.09L372.89 145.23L372.71 145.36L316.84 184.42L316.66 184.54L316.47 184.65L316.29 184.74L316.09 184.83L315.9 184.91L315.7 184.98L315.5 185.04L315.3 185.08L315.1 185.12L314.9 185.15L314.7 185.17L314.5 185.18L314.29 185.17L314.09 185.16L313.89 185.14L313.69 185.11L313.49 185.07L313.48 185.07L313.43 185.07L313.23 185.09L313.02 185.09L312.82 185.08L312.62 185.06L312.41 185.04L312.21 185L312.01 184.95L311.81 184.9L311.62 184.83L311.42 184.75L311.23 184.66L311.04 184.56L310.86 184.46L310.68 184.34L254.65 145.5L254.47 145.37L254.31 145.24L254.15 145.1L254 144.95L253.86 144.79L253.73 144.63L253.6 144.47L253.49 144.29L253.38 144.12L253.29 143.94L253.2 143.76L253.12 143.57L253.05 143.38L252.99 143.18L252.94 142.99L252.9 142.79L252.87 142.59L252.85 142.39L252.84 142.19L252.83 141.98L252.84 141.78L252.86 141.58L252.89 141.38L252.92 141.17L252.97 140.97L253.03 140.78L253.09 140.58L253.17 140.38L253.26 140.19L253.36 140L253.47 139.82L253.59 139.64L253.71 139.46L253.85 139.3L253.99 139.14L254.14 138.99L254.29 138.85L254.45 138.72L254.62 138.59L254.79 138.48L254.97 138.37L255.15 138.28L255.33 138.19L255.52 138.11L255.71 138.04L255.9 137.98L256.1 137.93L256.3 137.89L256.5 137.86L256.7 137.84L256.9 137.83L257.1 137.82L257.31 137.83L257.51 137.85L257.71 137.88L257.91 137.91L258.11 137.96L258.31 138.02L258.51 138.08L258.7 138.16L258.89 138.25L259.08 138.35L259.27 138.46L259.45 138.57L313.81 176.25L367.88 138.45L368.06 138.33L368.25 138.22L368.44 138.12L368.63 138.03L368.82 137.96L369.02 137.89L369.22 137.83L369.42 137.78L369.62 137.74L369.82 137.72L370.02 137.7L370.23 137.69L370.43 137.69L370.63 137.7Z" id="cAWhHznC5"></path></defs><g><g><g><use xlink:href="#e12aPqmbFK" opacity="1" fill="#000000" fill-opacity="1"></use></g><g><use xlink:href="#c1jjGHQr7l" opacity="1" fill="#000000" fill-opacity="1"></use></g><g><use xlink:href="#dcY8pP0Eu" opacity="1" fill="#000000" fill-opacity="1"></use></g><g><use xlink:href="#fzRWSeoYx" opacity="1" fill="#000000" fill-opacity="1"></use></g><g><use xlink:href="#ba09npbIW" opacity="1" fill="#000000" fill-opacity="1"></use></g><g><use xlink:href="#g2OonOoJc" opacity="1" fill="#000000" fill-opacity="1"></use></g><g><use xlink:href="#a3jyMwodym" opacity="1" fill="#ff2929" fill-opacity="1"></use></g><g><use xlink:href="#c6rZ0cmwBg" opacity="1" fill="#000000" fill-opacity="1"></use></g><g><use xlink:href="#hLVMtkbjt" opacity="1" fill="#000000" fill-opacity="1"></use></g><g><use xlink:href="#b44O7tuwz0" opacity="1" fill="#000000" fill-opacity="1"></use></g><g><use xlink:href="#h4DqWOHSX" opacity="1" fill="#000000" fill-opacity="1"></use></g><g><use xlink:href="#b1vBA4mIwy" opacity="1" fill="#000000" fill-opacity="1"></use></g><g><use xlink:href="#b7BK5AJJZ" opacity="1" fill="#000000" fill-opacity="1"></use></g><g><use xlink:href="#bdAPlBdIF" opacity="1" fill="#000000" fill-opacity="1"></use></g><g><use xlink:href="#awnB9zKlA" opacity="1" fill="#000000" fill-opacity="1"></use></g><g><use xlink:href="#aDxjqW8o" opacity="1" fill="#000000" fill-opacity="1"></use></g><g><use xlink:href="#d5CSNmz8A" opacity="1" fill="#000000" fill-opacity="1"></use></g><g><use xlink:href="#cAWhHznC5" opacity="1" fill="#000000" fill-opacity="1"></use></g></g></g></svg>